<svg xmlns="http://www.w3.org/2000/svg" viewBox="0 0 128 128" role="img" aria-labelledby="title desc">
  <title id="title">Roger Reviewer Mark</title>
  <desc id="desc">Metallic walkie-talkie mark with radio pulse accent.</desc>
  <defs>
    <linearGradient id="rogerMarkPlate" x1="14" y1="12" x2="114" y2="112" gradientUnits="userSpaceOnUse">
      <stop offset="0%" stop-color="#f6f8fa" />
      <stop offset="52%" stop-color="#d0d7de" />
      <stop offset="100%" stop-color="#8c959f" />
    </linearGradient>
    <linearGradient id="rogerMarkBody" x1="35" y1="24" x2="93" y2="100" gradientUnits="userSpaceOnUse">
      <stop offset="0%" stop-color="#6e7781" />
      <stop offset="100%" stop-color="#30363d" />
    </linearGradient>
    <radialGradient id="rogerMarkPulse" cx="0" cy="0" r="1" gradientUnits="userSpaceOnUse" gradientTransform="translate(86 30) rotate(135) scale(11 11)">
      <stop offset="0%" stop-color="#58a6ff" />
      <stop offset="100%" stop-color="#1f6feb" />
    </radialGradient>
  </defs>
  <rect x="10" y="10" width="108" height="108" rx="24" fill="url(#rogerMarkPlate)" stroke="#6e7781" stroke-opacity="0.9" />
  <rect x="35" y="24" width="58" height="78" rx="14" fill="url(#rogerMarkBody)" />
  <rect x="44" y="33" width="40" height="21" rx="5" fill="#0d1117" />
  <rect x="58" y="16" width="10" height="8" rx="2" fill="#afb8c1" />
  <path d="M63 16V8" stroke="#57606a" stroke-width="3" stroke-linecap="round" />
  <circle cx="86" cy="30" r="8" fill="url(#rogerMarkPulse)" />
  <path d="M100 22C104 26 104 34 100 38" stroke="#1f6feb" stroke-width="3" stroke-linecap="round" stroke-opacity="0.75" />
  <path d="M105 18C111 24 111 36 105 42" stroke="#58a6ff" stroke-width="2.5" stroke-linecap="round" stroke-opacity="0.55" />
  <circle cx="50" cy="64" r="4.2" fill="#c9d1d9" />
  <circle cx="78" cy="64" r="4.2" fill="#c9d1d9" />
  <g stroke="#c9d1d9" stroke-width="3" stroke-linecap="round">
    <path d="M45 79H83" />
    <path d="M45 86H83" />
    <path d="M45 93H83" />
  </g>
</svg>
