<svg width="96" height="96" viewBox="0 0 96 96" fill="none" xmlns="http://www.w3.org/2000/svg" role="img" aria-labelledby="title desc">
  <title id="title">Roger mark</title>
  <desc id="desc">Hexagonal signal mark with a stylized R.</desc>
  <defs>
    <linearGradient id="rg" x1="10" y1="8" x2="84" y2="88" gradientUnits="userSpaceOnUse">
      <stop offset="0" stop-color="#0E7C98" />
      <stop offset="1" stop-color="#06475B" />
    </linearGradient>
  </defs>
  <path d="M48 6L82 26V70L48 90L14 70V26L48 6Z" fill="url(#rg)" />
  <path d="M48 18L72 32V64L48 78L24 64V32L48 18Z" fill="rgba(255,255,255,0.1)" />
  <path d="M34 63V32H50.5C57.5 32 62 35.8 62 41.9C62 47.2 58.7 50.8 53.5 51.8L64 63H56.1L47 52.8H40.7V63H34ZM40.7 47H49.1C53.1 47 55.2 45.1 55.2 42.1C55.2 39 53.1 37.2 49.1 37.2H40.7V47Z" fill="#F5FBFD" />
</svg>
